<svg width="12" height="12" viewBox="0 0 12 12" fill="none" xmlns="http://www.w3.org/2000/svg">
<path d="M8.49995 3.49995C8.26876 2.89783 7.89076 2.36303 7.4003 1.94418C6.90983 1.52533 6.32246 1.23571 5.69157 1.10163C5.06069 0.967555 4.4063 0.993283 3.78788 1.17648C3.16947 1.35967 2.60665 1.69452 2.15059 2.15059C1.69452 2.60665 1.35967 3.16947 1.17648 3.78788C0.993283 4.4063 0.967555 5.06069 1.10163 5.69157C1.23571 6.32246 1.52533 6.90983 1.94418 7.4003C2.36303 7.89076 2.89783 8.26876 3.49995 8.49995C3.73113 9.10207 4.10913 9.63686 4.5996 10.0557C5.09006 10.4746 5.67744 10.7642 6.30832 10.8983C6.93921 11.0323 7.5936 11.0066 8.21201 10.8234C8.83042 10.6402 9.39324 10.3054 9.84931 9.84931C10.3054 9.39324 10.6402 8.83042 10.8234 8.21201C11.0066 7.5936 11.0323 6.93921 10.8983 6.30832C10.7642 5.67744 10.4746 5.09006 10.0557 4.5996C9.63686 4.10913 9.10207 3.73113 8.49995 3.49995ZM7.69995 4.29995C7.73606 4.48781 7.75447 4.67864 7.75495 4.86995C7.75391 5.0956 7.72707 5.32039 7.67495 5.53995L6.45495 4.32995C6.6745 4.27783 6.89929 4.25099 7.12495 4.24995C7.31625 4.25042 7.50708 4.26884 7.69495 4.30495L7.69995 4.29995ZM7.22995 6.49995C7.03062 6.78364 6.78364 7.03062 6.49995 7.22995L4.76995 5.49995C4.96927 5.21626 5.21626 4.96927 5.49995 4.76995L7.22995 6.49995ZM3.22995 7.22995C2.88355 6.99033 2.59403 6.67752 2.38186 6.31366C2.1697 5.94979 2.04009 5.54375 2.00218 5.12426C1.96427 4.70476 2.019 4.28207 2.1625 3.88606C2.30599 3.49005 2.53475 3.13041 2.83258 2.83258C3.13041 2.53475 3.49005 2.30599 3.88606 2.1625C4.28207 2.019 4.70476 1.96427 5.12426 2.00218C5.54375 2.04009 5.94979 2.1697 6.31366 2.38186C6.67752 2.59403 6.99033 2.88355 7.22995 3.22995H7.10495C6.07764 3.23656 5.09489 3.65032 4.37222 4.38049C3.64955 5.11066 3.24595 6.09763 3.24995 7.12495C3.24995 7.16495 3.25495 7.20995 3.25495 7.24995L3.22995 7.22995ZM4.27995 7.67495C4.24384 7.48708 4.22542 7.29625 4.22495 7.10495C4.22599 6.87929 4.25283 6.6545 4.30495 6.43495L5.51995 7.64995C5.30039 7.70206 5.0756 7.72891 4.84995 7.72995C4.6676 7.73455 4.48521 7.72283 4.30495 7.69495L4.27995 7.67495ZM7.12495 9.99995C6.65697 9.99907 6.19623 9.88436 5.78247 9.66572C5.36871 9.44708 5.01435 9.13107 4.74995 8.74495H4.87495C5.90139 8.74363 6.88549 8.33563 7.61176 7.61029C8.33804 6.88496 8.7473 5.90139 8.74995 4.87495C8.74995 4.83495 8.74995 4.78995 8.74995 4.74995C9.25786 5.09643 9.64131 5.59662 9.84402 6.17708C10.0467 6.75754 10.058 7.3877 9.87621 7.97504C9.69442 8.56239 9.32912 9.07598 8.83394 9.44043C8.33876 9.80488 7.73978 10.001 7.12495 9.99995Z" fill="#B7B7B7"/>
</svg>
