<svg width="12" height="12" viewBox="0 0 12 12" fill="none" xmlns="http://www.w3.org/2000/svg">
<path d="M10.8551 2.35991L9.64007 1.14491C9.54639 1.05178 9.41966 0.999512 9.28757 0.999512C9.15548 0.999512 9.02875 1.05178 8.93507 1.14491L6.14507 3.93491C6.09873 3.98163 6.06207 4.03704 6.03718 4.09795C6.0123 4.15887 5.99969 4.2241 6.00007 4.28991V5.49991C6.00007 5.63252 6.05275 5.75969 6.14652 5.85346C6.24028 5.94723 6.36746 5.99991 6.50007 5.99991H7.71007C7.77587 6.00029 7.8411 5.98768 7.90202 5.96279C7.96294 5.93791 8.01835 5.90125 8.06507 5.85491L10.8551 3.06491C10.9482 2.97123 11.0005 2.8445 11.0005 2.71241C11.0005 2.58032 10.9482 2.45359 10.8551 2.35991ZM7.50007 4.99991H7.00007V4.49991L9.29007 2.20991L9.79007 2.70991L7.50007 4.99991ZM9.50007 5.99991C9.36746 5.99991 9.24028 6.05259 9.14652 6.14635C9.05275 6.24012 9.00007 6.3673 9.00007 6.49991C9.00007 7.42817 8.63132 8.3184 7.97494 8.97478C7.31857 9.63116 6.42833 9.99991 5.50007 9.99991H2.70507L3.02507 9.68491C3.07193 9.63843 3.10913 9.58313 3.13452 9.5222C3.1599 9.46127 3.17297 9.39591 3.17297 9.32991C3.17297 9.2639 3.1599 9.19855 3.13452 9.13762C3.10913 9.07669 3.07193 9.02139 3.02507 8.97491C2.53554 8.48542 2.20215 7.86176 2.06708 7.18279C1.93201 6.50383 2.00133 5.80005 2.26625 5.16048C2.53118 4.52091 2.97982 3.97427 3.55544 3.58968C4.13106 3.2051 4.8078 2.99986 5.50007 2.99991C5.63268 2.99991 5.75985 2.94723 5.85362 2.85346C5.94739 2.75969 6.00007 2.63252 6.00007 2.49991C6.00007 2.3673 5.94739 2.24012 5.85362 2.14635C5.75985 2.05259 5.63268 1.99991 5.50007 1.99991C4.6538 2.00269 3.82547 2.24405 3.11016 2.69628C2.39486 3.14851 1.82157 3.79327 1.4561 4.55657C1.09064 5.31986 0.947824 6.17073 1.04404 7.01152C1.14026 7.8523 1.47162 8.64892 2.00007 9.30991L1.14507 10.1449C1.07569 10.2152 1.02869 10.3045 1.01001 10.4015C0.991319 10.4985 1.00178 10.5989 1.04007 10.6899C1.07758 10.7812 1.14128 10.8594 1.22314 10.9145C1.305 10.9697 1.40136 10.9994 1.50007 10.9999H5.50007C6.09102 10.9999 6.67618 10.8835 7.22215 10.6574C7.76811 10.4312 8.26419 10.0998 8.68205 9.68189C9.09991 9.26402 9.43138 8.76795 9.65753 8.22198C9.88367 7.67602 10.0001 7.09086 10.0001 6.49991C10.0001 6.3673 9.94739 6.24012 9.85362 6.14635C9.75986 6.05259 9.63268 5.99991 9.50007 5.99991Z" fill="#B7B7B7"/>
</svg>
