<svg width="12" height="12" viewBox="0 0 12 12" fill="none" xmlns="http://www.w3.org/2000/svg">
<path d="M9.99512 1.00098C9.92944 1.00094 9.86441 1.01385 9.80373 1.03896C9.74305 1.06407 9.68791 1.1009 9.64148 1.14734C9.59504 1.19378 9.55822 1.24891 9.5331 1.30959C9.50799 1.37027 9.49508 1.43531 9.49512 1.50098V1.81934C9.07342 2.34219 8.54044 2.76443 7.93499 3.05534C7.32953 3.34624 6.66683 3.49848 5.99512 3.50098H2.99512C2.59743 3.50141 2.21615 3.65959 1.93494 3.9408C1.65373 4.22201 1.49555 4.60329 1.49512 5.00098V6.00098C1.49555 6.39867 1.65373 6.77995 1.93494 7.06116C2.21615 7.34237 2.59743 7.50054 2.99512 7.50098H3.23701L2.03565 10.3042C2.003 10.3802 1.98974 10.4632 1.99707 10.5456C2.0044 10.628 2.03208 10.7073 2.07763 10.7764C2.12318 10.8455 2.18517 10.9021 2.25804 10.9413C2.33091 10.9805 2.41237 11.001 2.49512 11.001H4.49512C4.59299 11.001 4.68873 10.9723 4.77042 10.9184C4.85211 10.8645 4.91616 10.7878 4.95459 10.6978L6.31647 7.51998C6.93179 7.56516 7.53131 7.73599 8.07803 8.02194C8.62474 8.30789 9.10703 8.70288 9.49512 9.18251V9.50098C9.49512 9.63359 9.54779 9.76076 9.64156 9.85453C9.73533 9.9483 9.86251 10.001 9.99512 10.001C10.1277 10.001 10.2549 9.9483 10.3487 9.85453C10.4424 9.76076 10.4951 9.63359 10.4951 9.50098V1.50098C10.4952 1.4353 10.4822 1.37027 10.4571 1.30959C10.432 1.24891 10.3952 1.19378 10.3488 1.14734C10.3023 1.1009 10.2472 1.06407 10.1865 1.03896C10.1258 1.01385 10.0608 1.00094 9.99512 1.00098ZM2.99512 6.50098C2.86254 6.50089 2.73541 6.44818 2.64166 6.35443C2.54791 6.26068 2.49521 6.13356 2.49512 6.00098V5.00098C2.49521 4.8684 2.54791 4.74127 2.64166 4.64752C2.73541 4.55377 2.86254 4.50107 2.99512 4.50098H3.49512V6.50098H2.99512ZM4.16553 10.001H3.25342L4.32471 7.50098H5.23682L4.16553 10.001ZM9.49512 7.76188C8.50925 6.94969 7.27245 6.50411 5.99512 6.50095H4.49512V4.50095H5.99512C7.27248 4.49769 8.50926 4.05203 9.49512 3.23978V7.76188Z" fill="#B7B7B7"/>
</svg>
