<svg width="12" height="12" viewBox="0 0 12 12" fill="none" xmlns="http://www.w3.org/2000/svg">
<path d="M10.7051 4.32006C10.7051 4.32006 10.7051 4.32006 10.7051 4.29506C10.3528 3.33317 9.71355 2.5027 8.87384 1.91599C8.03413 1.32928 7.03447 1.01465 6.0101 1.01465C4.98572 1.01465 3.98606 1.32928 3.14635 1.91599C2.30664 2.5027 1.6674 3.33317 1.3151 4.29506C1.3151 4.29506 1.3151 4.29506 1.3151 4.32006C0.92166 5.40551 0.92166 6.59461 1.3151 7.68006C1.3151 7.68006 1.3151 7.68006 1.3151 7.70506C1.6674 8.66695 2.30664 9.49742 3.14635 10.0841C3.98606 10.6708 4.98572 10.9855 6.0101 10.9855C7.03447 10.9855 8.03413 10.6708 8.87384 10.0841C9.71355 9.49742 10.3528 8.66695 10.7051 7.70506C10.7051 7.70506 10.7051 7.70506 10.7051 7.68006C11.0985 6.59461 11.0985 5.40551 10.7051 4.32006ZM2.1301 7.00006C1.95671 6.34467 1.95671 5.65546 2.1301 5.00006H3.0601C2.98011 5.66433 2.98011 6.3358 3.0601 7.00006H2.1301ZM2.5401 8.00006H3.2401C3.35746 8.44598 3.5252 8.87709 3.7401 9.28506C3.24975 8.95103 2.83985 8.51209 2.5401 8.00006ZM3.2401 4.00006H2.5401C2.83553 3.48961 3.24019 3.0508 3.7251 2.71506C3.51537 3.12368 3.35267 3.55477 3.2401 4.00006ZM5.5001 9.85006C4.88598 9.3994 4.45467 8.74268 4.2851 8.00006H5.5001V9.85006ZM5.5001 7.00006H4.0701C3.97679 6.33666 3.97679 5.66346 4.0701 5.00006H5.5001V7.00006ZM5.5001 4.00006H4.2851C4.45467 3.25745 4.88598 2.60072 5.5001 2.15006V4.00006ZM9.4601 4.00006H8.7601C8.64274 3.55414 8.47499 3.12303 8.2601 2.71506C8.75045 3.0491 9.16035 3.48803 9.4601 4.00006ZM6.5001 2.15006C7.11422 2.60072 7.54552 3.25745 7.7151 4.00006H6.5001V2.15006ZM6.5001 9.85006V8.00006H7.7151C7.54552 8.74268 7.11422 9.3994 6.5001 9.85006ZM7.9301 7.00006H6.5001V5.00006H7.9301C8.0234 5.66346 8.0234 6.33666 7.9301 7.00006ZM8.2751 9.28506C8.48999 8.87709 8.65774 8.44598 8.7751 8.00006H9.4751C9.17535 8.51209 8.76545 8.95103 8.2751 9.28506ZM9.8701 7.00006H8.9401C8.98076 6.66829 9.0008 6.33432 9.0001 6.00006C9.00065 5.66581 8.98061 5.33185 8.9401 5.00006H9.8701C10.0435 5.65546 10.0435 6.34467 9.8701 7.00006Z" fill="#B7B7B7"/>
</svg>
