<svg width="12" height="12" viewBox="0 0 12 12" fill="none" xmlns="http://www.w3.org/2000/svg">
<path d="M10.0801 2.30491C9.54929 1.77391 8.8455 1.45107 8.09675 1.3951C7.348 1.33912 6.60403 1.55374 6.00014 1.99991C5.36397 1.52673 4.57213 1.31216 3.7841 1.39943C2.99606 1.48669 2.27036 1.8693 1.75312 2.4702C1.23589 3.0711 0.965549 3.84567 0.996538 4.63791C1.02753 5.43016 1.35755 6.18124 1.92014 6.73991L5.64514 10.4649C5.69162 10.5118 5.74692 10.549 5.80785 10.5744C5.86878 10.5997 5.93413 10.6128 6.00014 10.6128C6.06614 10.6128 6.1315 10.5997 6.19243 10.5744C6.25336 10.549 6.30866 10.5118 6.35514 10.4649L10.0801 6.73991C10.3715 6.44877 10.6026 6.10308 10.7602 5.72259C10.9179 5.3421 10.9991 4.93427 10.9991 4.52241C10.9991 4.11054 10.9179 3.70271 10.7602 3.32222C10.6026 2.94174 10.3715 2.59605 10.0801 2.30491ZM9.37514 6.03491L6.00014 9.40491L2.62514 6.03491C2.32773 5.73626 2.12512 5.35643 2.04275 4.94308C1.96038 4.52972 2.0019 4.10125 2.16211 3.7114C2.32232 3.32156 2.59409 2.9877 2.94331 2.75172C3.29253 2.51573 3.70367 2.38813 4.12514 2.38491C4.68819 2.38629 5.22769 2.61107 5.62514 3.00991C5.67162 3.05677 5.72692 3.09397 5.78785 3.11935C5.84878 3.14474 5.91413 3.15781 5.98014 3.15781C6.04614 3.15781 6.1115 3.14474 6.17243 3.11935C6.23336 3.09397 6.28866 3.05677 6.33514 3.00991C6.7443 2.65535 7.27288 2.46948 7.81391 2.48992C8.35493 2.51036 8.86799 2.73558 9.24923 3.12C9.63047 3.50442 9.85143 4.01933 9.86738 4.5605C9.88333 5.10168 9.69308 5.6287 9.33514 6.03491H9.37514Z" fill="#B7B7B7"/>
</svg>
