<svg width="12" height="12" viewBox="0 0 12 12" fill="none" xmlns="http://www.w3.org/2000/svg">
<g clip-path="url(#clip0_535_10828)">
<path d="M10.9501 3.79511L10.4501 1.86011C10.3992 1.66795 10.3106 1.48783 10.1894 1.33022C10.0682 1.17261 9.91697 1.04065 9.74437 0.94202C9.57177 0.84339 9.38128 0.780053 9.18398 0.755691C8.98669 0.731329 8.78651 0.746428 8.5951 0.800111L7.6301 1.06011C7.56626 1.07693 7.50639 1.10623 7.45393 1.14631C7.40147 1.18639 7.35747 1.23647 7.32447 1.29365C7.29146 1.35082 7.27011 1.41397 7.26164 1.47944C7.25316 1.54491 7.25774 1.61142 7.2751 1.67511L7.4051 2.17511L2.0951 3.58011C1.96727 3.61415 1.85814 3.69745 1.7916 3.81178C1.72507 3.92611 1.70655 4.06215 1.7401 4.19011L1.8701 4.69011L1.3701 4.82011C1.2375 4.83669 1.1169 4.90526 1.03486 5.01075C0.952809 5.11624 0.916028 5.25 0.932604 5.38261C0.94918 5.51522 1.01776 5.63581 1.12324 5.71786C1.22873 5.79991 1.3625 5.83669 1.4951 5.82011C1.53828 5.8253 1.58193 5.8253 1.6251 5.82011L2.1251 5.68511L2.2551 6.18511C2.28956 6.31136 2.37213 6.41906 2.4851 6.48511C2.56082 6.53005 2.64706 6.5542 2.7351 6.55511C2.77811 6.56268 2.8221 6.56268 2.8651 6.55511L4.5001 6.04011V6.25011C4.50045 6.47211 4.55177 6.69107 4.6501 6.89011L2.1501 9.39011C2.05595 9.4836 2.00279 9.61066 2.00233 9.74334C2.00186 9.87602 2.05412 10.0035 2.1476 10.0976C2.24109 10.1918 2.36815 10.2449 2.50084 10.2454C2.63352 10.2459 2.76095 10.1936 2.8551 10.1001L5.3551 7.60011L5.4951 7.65511V10.7501C5.4951 10.8827 5.54778 11.0099 5.64155 11.1037C5.73532 11.1974 5.8625 11.2501 5.9951 11.2501C6.12771 11.2501 6.25489 11.1974 6.34866 11.1037C6.44243 11.0099 6.4951 10.8827 6.4951 10.7501V7.66011C6.54464 7.64314 6.59306 7.6231 6.6401 7.60011L9.1401 10.1001C9.23426 10.1936 9.36169 10.2459 9.49437 10.2454C9.62705 10.2449 9.75412 10.1918 9.8476 10.0976C9.94109 10.0035 9.99335 9.87602 9.99288 9.74334C9.99241 9.61066 9.93926 9.4836 9.8451 9.39011L7.3451 6.89011C7.44216 6.69039 7.49503 6.4721 7.5001 6.25011V5.25011L8.1751 5.07011L8.3001 5.57011C8.3294 5.67919 8.39477 5.77514 8.48557 5.84232C8.57636 5.90951 8.68722 5.94398 8.8001 5.94011H8.9301L9.8951 5.68011C10.0901 5.62892 10.2729 5.53893 10.4323 5.41551C10.5918 5.2921 10.7248 5.1378 10.8232 4.96184C10.9217 4.78588 10.9837 4.59186 11.0055 4.3914C11.0273 4.19093 11.0085 3.98813 10.9501 3.79511ZM6.5001 6.25011C6.49959 6.37885 6.44944 6.50242 6.3601 6.59511C6.26742 6.68445 6.14384 6.7346 6.0151 6.73511C5.88393 6.73456 5.75823 6.68248 5.6651 6.59011C5.57273 6.49698 5.52066 6.37128 5.5201 6.24011V5.74011L6.5001 5.50011V6.25011ZM3.0951 5.38011L2.8351 4.41511L7.6651 3.12011L7.7951 3.62011L7.9251 4.12011L3.0951 5.38011ZM9.9351 4.43011C9.90232 4.48749 9.85848 4.53781 9.80613 4.57815C9.75378 4.61848 9.69395 4.64804 9.6301 4.66511L9.1301 4.79511L8.7401 3.34511L8.5001 2.38011L8.3701 1.88011L8.8701 1.75011C8.9338 1.73275 9.0003 1.72817 9.06577 1.73664C9.13125 1.74511 9.19439 1.76647 9.25157 1.79947C9.30875 1.83248 9.35882 1.87648 9.3989 1.92894C9.43899 1.98139 9.46828 2.04127 9.4851 2.10511L9.9851 4.04011C10.0036 4.10512 10.0086 4.1732 10 4.24023C9.99146 4.30726 9.96936 4.37186 9.9351 4.43011Z" fill="#B7B7B7"/>
</g>
<defs>
<clipPath id="clip0_535_10828">
<rect width="12" height="12" fill="white"/>
</clipPath>
</defs>
</svg>
